<?xml version="1.0" encoding="UTF-8"?>
<svg id="Capa_1" data-name="Capa 1" xmlns="http://www.w3.org/2000/svg" viewBox="0 0 1080 1080">
  <defs>
    <style>
      .cls-1 {
        fill: #1d1d1b;
        stroke-width: 0px;
      }
    </style>
  </defs>
  <polygon class="cls-1" points="324.87 845.79 330.16 839.19 313.16 825.55 319.54 817.6 338.79 833.05 344.25 826.25 316.58 804.04 287.19 840.66 315.54 863.41 321 856.61 301.07 840.61 307.87 832.14 324.87 845.79"/>
  <polygon class="cls-1" points="359.63 835.86 350.36 830.21 325.9 870.28 355.28 888.2 359.89 880.65 339.79 868.39 359.63 835.86"/>
  <polygon class="cls-1" points="440.26 872.85 414.12 894.47 407.43 861.07 398.97 858.04 383.12 902.23 392.71 905.67 402.02 879.72 407.33 905.64 411.94 907.3 432.78 890.12 423.33 916.66 432.92 920.1 448.66 875.86 440.26 872.85"/>
  <path class="cls-1" d="M471.41,880.21l-28.96,42.47,10.96,1.98,5.88-9.16,21.45,3.88,2.3,10.64,11.22,2.03-12.29-49.94-10.56-1.91ZM464.2,908.01l10.53-16.36,4.12,19.01-14.65-2.65Z"/>
  <polygon class="cls-1" points="497.22 893.79 512.23 894.43 510.62 932.49 521.48 932.95 523.09 894.89 538.1 895.52 538.47 886.68 497.6 884.95 497.22 893.79"/>
  <polygon class="cls-1" points="555.9 923.34 555.08 912.51 576.82 910.87 576.18 902.44 554.45 904.08 553.68 893.91 578.29 892.05 577.64 883.36 542.26 886.03 545.79 932.85 582.04 930.11 581.38 921.42 555.9 923.34"/>
  <path class="cls-1" d="M600,880.04l-12.61,49.83,10.97-1.9,2.38-10.62,21.48-3.72,5.81,9.2,11.24-1.95-28.7-42.68-10.57,1.83ZM602.77,908.62l4.27-18.98,10.4,16.44-14.67,2.54Z"/>
  <path class="cls-1" d="M679.07,871.38c-3.12-2.72-6.84-4.43-11.15-5.13-4.32-.69-8.91-.28-13.77,1.24l-20.36,6.35,13.98,44.82,20.36-6.35c4.87-1.52,8.88-3.79,12.03-6.81s5.24-6.54,6.26-10.56c1.02-4.02.83-8.27-.57-12.75-1.4-4.48-3.66-8.09-6.78-10.81ZM674.51,896.86c-1.89,3.33-5.07,5.69-9.55,7.09l-9.48,2.96-8.67-27.79,9.48-2.96c4.48-1.4,8.45-1.27,11.89.4,3.45,1.66,5.84,4.63,7.17,8.9,1.33,4.27,1.05,8.07-.84,11.4Z"/>
  <path class="cls-1" d="M729.19,847.51c-3.64-2.31-7.67-3.55-12.09-3.7-4.42-.16-8.81.85-13.18,3.01-4.37,2.16-7.84,5.05-10.41,8.67-2.57,3.62-4.03,7.58-4.38,11.86-.35,4.29.51,8.49,2.55,12.62,2.05,4.13,4.88,7.35,8.5,9.68,3.62,2.32,7.65,3.56,12.09,3.7,4.44.15,8.84-.86,13.21-3.03,4.37-2.16,7.83-5.05,10.38-8.66,2.55-3.61,4.01-7.56,4.38-11.86.37-4.3-.47-8.51-2.52-12.64-2.04-4.13-4.89-7.35-8.53-9.66ZM729.6,869.87c-.13,2.61-.91,4.98-2.35,7.12s-3.4,3.82-5.88,5.05c-2.48,1.23-5.01,1.77-7.58,1.62-2.57-.15-4.93-.96-7.08-2.44-2.15-1.48-3.88-3.52-5.17-6.12-1.29-2.6-1.87-5.21-1.74-7.82.13-2.61.91-4.98,2.35-7.12,1.44-2.13,3.4-3.82,5.88-5.05,2.48-1.23,5.01-1.77,7.58-1.62,2.57.15,4.93.96,7.08,2.44,2.16,1.48,3.88,3.52,5.17,6.12,1.29,2.61,1.87,5.21,1.74,7.82Z"/>
  <path class="cls-1" d="M775.51,841.01c1.75-2.87,2.58-5.83,2.5-8.86-.09-3.03-1.13-5.97-3.14-8.82-2.01-2.85-4.42-4.84-7.24-5.97-2.82-1.13-5.88-1.38-9.18-.75-3.3.63-6.65,2.15-10.05,4.54l-16.61,11.71,27.05,38.38,8.88-6.26-7.53-10.69,7.73-5.45.44-.31,14.93,5.47,9.54-6.72-17.3-6.27ZM767.27,836.07c-.56,2.15-2.18,4.16-4.85,6.04l-7.24,5.1-9.43-13.38,7.24-5.1c2.67-1.88,5.1-2.73,7.3-2.56,2.2.17,4.06,1.34,5.58,3.49,1.49,2.12,1.96,4.26,1.39,6.4Z"/>
  <path class="cls-1" d="M584.21,771.34c79.48-10.81,132.08-76.38,134.07-155.14.28-11.1-16.97-11.1-17.25,0-1.81,71.97-49.47,128.72-121.4,138.51-10.95,1.49-6.29,18.11,4.58,16.63Z"/>
  <path class="cls-1" d="M769.42,639.21c0-58.28-23.18-118.13-68.84-177.87-2.56-29.52-23.37-53.94-49.93-58.48-14.34-8.89-39.87-14-65.67-16.66l84.37-229.12c.84-2.27.51-4.81-.87-6.8-1.38-1.99-3.65-3.17-6.07-3.17l-46.02-.05h0c-3.15,0-5.95,1.99-6.99,4.96l-81.34,231.86c-35.1.7-82.56,5.52-104.3,18.98-26.77,5.01-47.16,29.09-49.83,58.15-45.65,60-68.81,119.95-68.81,178.21,0,36.72,10.59,70.86,29.28,100.29v.06s.65.97.65.97c39.52,61.38,114.46,101.97,202.22,101.97,136.69,0,232.16-83.6,232.16-203.29ZM661.7,415.2s0,0,0,0c0,0,0,0,0,0,0,0,0,0,0,0ZM625.1,409.81c11.98,3.35,19.05,6.99,20.73,9.83-1.34,2.28-6.15,5.06-14.16,7.81-13.36,4.57-35.69,9.02-65.85,10.81h0c-.98.06-1.6.09-1.84.11.25-.01.86-.05,1.84-.11l13.34-36.23c19.33,1.78,34.79,4.66,45.95,7.78ZM524.44,438.92l13.58-38.72,5.75-16.38,77.86-221.94,30.15.03-82.11,222.98-5.9,16.02-14,38.01-.36.96-25.3-.04.33-.93ZM449.14,409.84c15.95-4.48,40.68-8.47,73.1-9.43l-13.28,37.87c.15,0,.3.02.43.03-.13,0-.28-.02-.43-.03h0c-30.72-1.79-53.36-6.29-66.72-10.74-8.21-2.73-12.94-5.44-13.9-7.48,1.2-2.89,8.31-6.7,20.8-10.21ZM412.85,424.64c8.7,24.22,80.69,30.88,124.34,30.88s115.97-6.69,124.39-31.05c13.3,8.35,21.4,23.93,22.66,38.91-.44.3-.92.58-1.38.87-31.49,19.91-94.73,26.62-145.54,26.25-62.91-.54-117.67-10.62-145.68-26.57-.47-.27-.96-.54-1.42-.81,1.33-14.75,9.3-30.05,22.61-38.47ZM339.51,715.24c-.23-.26-.46-.53-.7-.8-10.53-21.69-16.59-45.58-17.22-70.85.51-3.11,1.15-6.3,1.96-9.6,9.49-38.65,34.84-75.1,46.49-90.37,5.01,13.66,13.54,40.06,16.63,68.82-3.98,3.22-7.84,6.58-11.48,10.1-35.4,34.19-36.52,68.99-33.77,87.4-.71,1.83-1.34,3.6-1.91,5.3ZM356.03,742.82c.57.43,1.16.87,1.78,1.3-.62-.44-1.21-.87-1.78-1.3h0ZM356.47,707.46s0,0,0,0c0,0,0,0,0,0,9.73-19.41,29.15-42.71,67.66-53.03,7.27-1.95,14.8-3.34,22.4-4.3,4.62-.58,9.27-1,13.92-1.28,35.23-2.13,69.9,3.8,86.66,7.63-13.64,18.45-47.38,60.14-88.62,82.9-3.87-3.72-7.9-7.29-12.08-10.6-38.44-30.4-73.44-26.07-89.93-21.32h0ZM453.82,634.3c-10.85.95-21.76,2.7-32.33,5.53-35.17,9.43-56.16,28.89-68.66,47.91,1.99-15.69,9.41-35.69,30.18-55.74,1.54-1.49,3.12-2.94,4.73-4.37,3.69-3.28,7.54-6.41,11.49-9.37h0c26.22-19.71,56.5-32.42,71.29-37.93-2.53,11.83-7.71,32.43-16.7,53.98ZM390.05,778.16c-9.48-7.65-18.13-16.06-25.87-25.12-1.74-2.6-3.18-5.13-4.37-7.56-3.05-6.27-4.4-11.88-4.91-16.43,0-.06-.01-.07-.01-.08,0,0,0,0-.04-.43-.4-3.99-.16-7.12.13-9.08,9.39-3.69,43.79-13.72,83.22,17.46,3.2,2.53,6.29,5.21,9.28,7.98,1.9,1.77,3.77,3.57,5.59,5.41,1.78,1.8,3.52,3.63,5.22,5.48,19.03,20.79,32.61,44.12,38.94,56.07-20.32-1.93-67.2-8.52-101.27-29.82-2.07-1.3-4.03-2.6-5.91-3.89ZM506.77,823.44l8.95.21-2.91-7.47c-2.03-5.22-18.51-37.86-44.04-66.18-2.58,1.54-5.2,2.99-7.84,4.39,2.64-1.4,5.26-2.85,7.84-4.39,53.9-32.22,94.15-92.89,94.58-93.57l5.5-8.65-8.62-3.09c-.51-.18-44.46-12.76-93.23-11.18,12.74-32.56,17.02-61.17,17.08-61.61l1.26-9.19-8.38,2.09c-6.02,1.5-45.1,15.22-79.27,39.34-5.65-40.72-20.45-74.4-20.66-74.86l-3.83-8.45-5.98,6.23c-3.74,3.9-23.74,29.01-39.45,60.94,8.78-36.5,26.8-73.6,53.91-110.88,30.4,18.16,87.8,29.24,155.51,29.81,1.23,0,2.58.02,4.06.02,30.12,0,110.39-2.69,151.54-29.55,39.95,54.69,60.21,109.08,60.21,161.82,0,111.01-88.71,188.54-215.73,188.54-21.68,0-42.52-2.67-62.12-7.65,18.43,2.89,31.34,3.34,31.63,3.35Z"/>
</svg>