<?xml version="1.0" encoding="UTF-8"?>
<svg id="Capa_1" data-name="Capa 1" xmlns="http://www.w3.org/2000/svg" xmlns:xlink="http://www.w3.org/1999/xlink" viewBox="0 0 1080 1080">
  <defs>
    <style>
      .cls-1 {
        fill: #fff;
      }

      .cls-1, .cls-2 {
        stroke-width: 0px;
      }

      .cls-2 {
        fill: #819f54;
        filter: url(#drop-shadow-1);
      }
    </style>
    <filter id="drop-shadow-1" filterUnits="userSpaceOnUse">
      <feOffset dx="10.13" dy="10.13"/>
      <feGaussianBlur result="blur" stdDeviation="13.03"/>
      <feFlood flood-color="#000" flood-opacity=".33"/>
      <feComposite in2="blur" operator="in"/>
      <feComposite in="SourceGraphic"/>
    </filter>
  </defs>
  <circle class="cls-2" cx="540" cy="540" r="440.83"/>
  <g>
    <polygon class="cls-1" points="367.9 784.63 372.13 779.36 358.53 768.44 363.63 762.08 379.03 774.44 383.4 769 361.26 751.23 337.75 780.53 360.43 798.73 364.8 793.29 348.86 780.49 354.3 773.71 367.9 784.63"/>
    <polygon class="cls-1" points="395.71 776.69 388.28 772.16 368.72 804.23 392.22 818.56 395.91 812.52 379.83 802.71 395.71 776.69"/>
    <polygon class="cls-1" points="460.21 806.28 439.29 823.57 433.95 796.86 427.18 794.43 414.49 829.78 422.17 832.53 429.62 811.78 433.86 832.51 437.55 833.84 454.22 820.1 446.66 841.33 454.34 844.08 466.92 808.69 460.21 806.28"/>
    <path class="cls-1" d="M485.13,812.17l-23.16,33.98,8.76,1.59,4.71-7.33,17.16,3.11,1.84,8.51,8.98,1.62-9.84-39.95-8.45-1.53ZM479.36,834.41l8.42-13.09,3.3,15.21-11.72-2.12Z"/>
    <polygon class="cls-1" points="505.78 823.04 517.79 823.54 516.5 853.99 525.18 854.36 526.47 823.91 538.48 824.42 538.78 817.34 506.08 815.96 505.78 823.04"/>
    <polygon class="cls-1" points="552.72 846.67 552.07 838.01 569.46 836.69 568.95 829.95 551.56 831.26 550.94 823.13 570.63 821.64 570.11 814.69 541.8 816.83 544.63 854.28 573.63 852.09 573.11 845.13 552.72 846.67"/>
    <path class="cls-1" d="M588,812.03l-10.09,39.86,8.78-1.52,1.91-8.5,17.18-2.97,4.65,7.36,8.99-1.56-22.96-34.14-8.46,1.46ZM590.21,834.9l3.42-15.18,8.32,13.15-11.74,2.03Z"/>
    <path class="cls-1" d="M651.25,805.1c-2.5-2.18-5.47-3.55-8.92-4.1-3.45-.55-7.12-.22-11.02.99l-16.29,5.08,11.19,35.85,16.29-5.08c3.89-1.21,7.1-3.03,9.63-5.45s4.19-5.23,5.01-8.45c.81-3.21.66-6.61-.46-10.2-1.12-3.59-2.93-6.47-5.43-8.65ZM647.61,825.49c-1.51,2.66-4.06,4.55-7.64,5.67l-7.58,2.36-6.94-22.23,7.58-2.36c3.59-1.12,6.76-1.01,9.51.32,2.76,1.33,4.67,3.71,5.73,7.12,1.07,3.41.84,6.45-.67,9.12Z"/>
    <path class="cls-1" d="M691.35,786.01c-2.91-1.85-6.14-2.84-9.67-2.96-3.53-.12-7.05.68-10.54,2.41-3.49,1.73-6.27,4.04-8.33,6.94-2.06,2.9-3.23,6.06-3.5,9.49-.28,3.43.4,6.8,2.04,10.1,1.64,3.3,3.9,5.88,6.8,7.74,2.9,1.86,6.12,2.85,9.67,2.96,3.55.12,7.07-.69,10.57-2.42,3.49-1.73,6.26-4.04,8.3-6.93,2.04-2.89,3.21-6.05,3.5-9.49.29-3.44-.38-6.81-2.01-10.11-1.64-3.3-3.91-5.88-6.82-7.73ZM691.68,803.9c-.1,2.09-.73,3.98-1.88,5.69s-2.72,3.05-4.71,4.04c-1.99.98-4.01,1.42-6.06,1.3-2.05-.12-3.94-.77-5.67-1.95-1.72-1.18-3.1-2.81-4.13-4.9-1.03-2.08-1.5-4.17-1.39-6.26.1-2.09.73-3.98,1.88-5.69,1.15-1.71,2.72-3.05,4.71-4.04,1.99-.99,4.01-1.42,6.06-1.3,2.05.12,3.94.77,5.67,1.95,1.72,1.18,3.1,2.82,4.13,4.9,1.03,2.08,1.5,4.17,1.39,6.26Z"/>
    <path class="cls-1" d="M728.41,780.81c1.4-2.3,2.07-4.66,2-7.09-.07-2.43-.91-4.78-2.51-7.06-1.61-2.28-3.54-3.87-5.8-4.78-2.26-.9-4.71-1.1-7.35-.6-2.64.51-5.32,1.72-8.04,3.63l-13.29,9.37,21.64,30.7,7.1-5.01-6.03-8.55,6.18-4.36.35-.25,11.95,4.38,7.63-5.38-13.84-5.01ZM721.81,776.86c-.45,1.72-1.74,3.33-3.88,4.84l-5.79,4.08-7.54-10.7,5.79-4.08c2.13-1.5,4.08-2.19,5.84-2.05,1.76.14,3.25,1.07,4.46,2.79,1.2,1.7,1.57,3.4,1.12,5.12Z"/>
    <path class="cls-1" d="M575.37,725.07c63.58-8.65,105.67-61.1,107.25-124.11.22-8.88-13.57-8.88-13.8,0-1.45,57.57-39.58,102.98-97.12,110.81-8.76,1.19-5.03,14.49,3.67,13.3Z"/>
    <path class="cls-1" d="M723.54,619.37c0-46.62-18.55-94.5-55.07-142.3-2.05-23.61-18.69-43.15-39.94-46.78-11.47-7.11-31.9-11.2-52.53-13.33l67.5-183.3c.67-1.82.41-3.85-.7-5.44-1.11-1.59-2.92-2.54-4.86-2.54l-36.82-.04h0c-2.52,0-4.76,1.59-5.59,3.97l-65.07,185.49c-28.08.56-66.05,4.41-83.44,15.19-21.42,4.01-37.73,23.27-39.86,46.52-36.52,48-55.05,95.96-55.05,142.57,0,29.37,8.47,56.69,23.43,80.23v.05s.52.78.52.78c31.62,49.1,91.57,81.57,161.77,81.57,109.36,0,185.73-66.88,185.73-162.63ZM637.36,440.16s0,0,0,0c0,0,0,0,0,0,0,0,0,0,0,0ZM608.08,435.85c9.58,2.68,15.24,5.59,16.58,7.86-1.07,1.82-4.92,4.05-11.33,6.24-10.69,3.66-28.56,7.21-52.68,8.65h0c-.79.05-1.28.08-1.47.09.2-.01.69-.04,1.48-.09l10.67-28.98c15.47,1.42,27.83,3.73,36.76,6.23ZM527.55,459.13l10.87-30.97,4.6-13.11,62.29-177.55,24.12.03-65.69,178.38-4.72,12.81-11.2,30.41-.28.77-20.24-.03.26-.75ZM467.31,435.88c12.76-3.59,32.55-6.78,58.48-7.54l-10.63,30.29c.12,0,.24.01.34.02-.11,0-.22-.01-.34-.02h0c-24.58-1.43-42.69-5.03-53.38-8.59-6.56-2.19-10.35-4.35-11.12-5.98.96-2.31,6.65-5.36,16.64-8.17ZM438.28,447.71c6.96,19.38,64.55,24.7,99.47,24.7s92.78-5.35,99.52-24.84c10.64,6.68,17.12,19.15,18.13,31.13-.36.24-.74.46-1.1.69-25.19,15.93-75.78,21.3-116.43,21-50.33-.43-94.14-8.49-116.54-21.26-.38-.22-.77-.43-1.14-.65,1.06-11.8,7.44-24.04,18.09-30.78ZM379.61,680.2c-.18-.2-.37-.42-.56-.64-8.42-17.35-13.27-36.47-13.77-56.68.41-2.49.92-5.04,1.57-7.68,7.59-30.92,27.88-60.08,37.19-72.3,4.01,10.93,10.83,32.05,13.3,55.06-3.19,2.57-6.27,5.27-9.18,8.08-28.32,27.35-29.22,55.19-27.02,69.92-.57,1.46-1.07,2.88-1.53,4.24ZM392.82,702.26c.46.35.93.69,1.42,1.04-.5-.35-.97-.7-1.42-1.04h0ZM393.18,673.97s0,0,0,0c0,0,0,0,0,0,7.79-15.52,23.32-34.16,54.12-42.42,5.82-1.56,11.84-2.68,17.92-3.44,3.7-.47,7.42-.8,11.13-1.03,28.19-1.7,55.92,3.04,69.33,6.11-10.91,14.76-37.9,48.11-70.9,66.32-3.1-2.98-6.32-5.83-9.67-8.48-30.75-24.32-58.75-20.86-71.95-17.06h0ZM471.05,615.44c-8.68.76-17.41,2.16-25.86,4.43-28.13,7.54-44.93,23.12-54.93,38.33,1.59-12.55,7.53-28.55,24.14-44.59,1.23-1.19,2.5-2.35,3.78-3.49,2.95-2.63,6.03-5.13,9.19-7.5h0c20.97-15.77,45.2-25.93,57.03-30.35-2.02,9.47-6.17,25.94-13.36,43.18ZM420.04,730.52c-7.58-6.12-14.5-12.85-20.7-20.1-1.4-2.08-2.55-4.1-3.5-6.05-2.44-5.01-3.52-9.5-3.93-13.14,0-.05-.01-.06-.01-.06,0,0,0,0-.03-.35-.32-3.19-.13-5.7.11-7.26,7.51-2.95,35.03-10.98,66.58,13.97,2.56,2.02,5.03,4.17,7.43,6.39,1.52,1.41,3.01,2.86,4.47,4.33,1.42,1.44,2.82,2.91,4.17,4.39,15.23,16.63,26.09,35.29,31.15,44.86-16.26-1.54-53.76-6.82-81.02-23.85-1.66-1.04-3.23-2.08-4.72-3.12ZM513.41,766.75l7.16.17-2.33-5.98c-1.63-4.17-14.81-30.29-35.23-52.94-2.06,1.23-4.16,2.39-6.28,3.52,2.11-1.12,4.21-2.28,6.28-3.52,43.12-25.77,75.32-74.31,75.67-74.86l4.4-6.92-6.9-2.47c-.41-.14-35.57-10.2-74.58-8.94,10.19-26.05,13.61-48.93,13.66-49.29l1.01-7.35-6.7,1.67c-4.82,1.2-36.08,12.18-63.42,31.47-4.52-32.57-16.36-59.52-16.53-59.89l-3.07-6.76-4.78,4.99c-2.99,3.12-18.99,23.21-31.56,48.75,7.02-29.2,21.44-58.88,43.13-88.7,24.32,14.53,70.24,23.39,124.41,23.85.98,0,2.07.01,3.25.01,24.1,0,88.31-2.15,121.23-23.64,31.96,43.75,48.17,87.26,48.17,129.46,0,88.81-70.97,150.83-172.59,150.83-17.35,0-34.01-2.14-49.7-6.12,14.75,2.31,25.07,2.67,25.31,2.68Z"/>
  </g>
</svg>